<svg xmlns="http://www.w3.org/2000/svg" id="Group_11766" width="18" height="18" viewBox="0 0 18 18">
    <defs>
        <clipPath id="clip-path">
            <path id="Rectangle_2667" fill="none" stroke="#7f7f7f" d="M0 0H18V18H0z"/>
        </clipPath>
        <style>
            .cls-3{fill:#1a1423}
        </style>
    </defs>
    <g id="Mask_Group_240" clip-path="url(#clip-path)">
        <g id="instagram-2016" transform="translate(1.319 1.298)">
            <path id="Path_58814" d="M5.142 7.713a2.571 2.571 0 1 1 2.571 2.571 2.571 2.571 0 0 1-2.571-2.571m-1.39 0a3.96 3.96 0 1 0 3.96-3.961 3.96 3.96 0 0 0-3.96 3.961M10.9 3.6a.926.926 0 1 0 .926-.925.926.926 0 0 0-.926.925M4.6 13.991a4.263 4.263 0 0 1-1.432-.265 2.4 2.4 0 0 1-.887-.577 2.38 2.38 0 0 1-.577-.887 4.259 4.259 0 0 1-.265-1.432c-.039-.813-.049-1.057-.049-3.117S1.4 5.41 1.435 4.6A4.291 4.291 0 0 1 1.7 3.164a2.4 2.4 0 0 1 .577-.887 2.377 2.377 0 0 1 .888-.577A4.259 4.259 0 0 1 4.6 1.434c.813-.037 1.057-.045 3.116-.045s2.3.008 3.117.045a4.291 4.291 0 0 1 1.432.265 2.389 2.389 0 0 1 .887.577 2.39 2.39 0 0 1 .577.887 4.259 4.259 0 0 1 .263 1.437c.037.814.045 1.057.045 3.117s-.007 2.3-.045 3.117a4.279 4.279 0 0 1-.265 1.432 2.554 2.554 0 0 1-1.464 1.463 4.259 4.259 0 0 1-1.432.265c-.813.037-1.057.045-3.117.045s-2.3-.007-3.116-.045M4.533.047A5.656 5.656 0 0 0 2.661.4a3.783 3.783 0 0 0-1.366.89A3.769 3.769 0 0 0 .4 2.661a5.657 5.657 0 0 0-.353 1.872C.009 5.355 0 5.618 0 7.713s.009 2.358.047 3.18A5.657 5.657 0 0 0 .4 12.765a3.77 3.77 0 0 0 .89 1.366 3.792 3.792 0 0 0 1.366.89 5.661 5.661 0 0 0 1.872.358c.823.037 1.085.047 3.18.047s2.357-.009 3.18-.047a5.657 5.657 0 0 0 1.872-.358 3.943 3.943 0 0 0 2.256-2.256 5.641 5.641 0 0 0 .358-1.872c.037-.823.046-1.085.046-3.18s-.009-2.358-.046-3.18a5.655 5.655 0 0 0-.358-1.872 3.793 3.793 0 0 0-.89-1.366A3.774 3.774 0 0 0 12.766.4a5.648 5.648 0 0 0-1.873-.353C10.071.009 9.808 0 7.714 0S5.356.009 4.533.047" class="cls-3"/>
            <path id="Path_58815" d="M5.142 7.713a2.571 2.571 0 1 1 2.571 2.571 2.571 2.571 0 0 1-2.571-2.571m-1.39 0a3.96 3.96 0 1 0 3.96-3.961 3.96 3.96 0 0 0-3.96 3.961M10.9 3.6a.926.926 0 1 0 .926-.925.926.926 0 0 0-.926.925M4.6 13.991a4.263 4.263 0 0 1-1.432-.265 2.4 2.4 0 0 1-.887-.577 2.38 2.38 0 0 1-.577-.887 4.259 4.259 0 0 1-.265-1.432c-.039-.813-.049-1.057-.049-3.117S1.4 5.41 1.435 4.6A4.291 4.291 0 0 1 1.7 3.164a2.4 2.4 0 0 1 .577-.887 2.377 2.377 0 0 1 .888-.577A4.259 4.259 0 0 1 4.6 1.434c.813-.037 1.057-.045 3.116-.045s2.3.008 3.117.045a4.291 4.291 0 0 1 1.432.265 2.389 2.389 0 0 1 .887.577 2.39 2.39 0 0 1 .577.887 4.259 4.259 0 0 1 .263 1.437c.037.814.045 1.057.045 3.117s-.007 2.3-.045 3.117a4.279 4.279 0 0 1-.265 1.432 2.554 2.554 0 0 1-1.464 1.463 4.259 4.259 0 0 1-1.432.265c-.813.037-1.057.045-3.117.045s-2.3-.007-3.116-.045M4.533.047A5.656 5.656 0 0 0 2.661.4a3.783 3.783 0 0 0-1.366.89A3.769 3.769 0 0 0 .4 2.661a5.657 5.657 0 0 0-.353 1.872C.009 5.355 0 5.618 0 7.713s.009 2.358.047 3.18A5.657 5.657 0 0 0 .4 12.765a3.77 3.77 0 0 0 .89 1.366 3.792 3.792 0 0 0 1.366.89 5.661 5.661 0 0 0 1.872.358c.823.037 1.085.047 3.18.047s2.357-.009 3.18-.047a5.657 5.657 0 0 0 1.872-.358 3.943 3.943 0 0 0 2.256-2.256 5.641 5.641 0 0 0 .358-1.872c.037-.823.046-1.085.046-3.18s-.009-2.358-.046-3.18a5.655 5.655 0 0 0-.358-1.872 3.793 3.793 0 0 0-.89-1.366A3.774 3.774 0 0 0 12.766.4a5.648 5.648 0 0 0-1.873-.353C10.071.009 9.808 0 7.714 0S5.356.009 4.533.047" class="cls-3"/>
        </g>
    </g>
</svg>
