<svg xmlns="http://www.w3.org/2000/svg" width="130" height="38.146" viewBox="0 0 130 38.146">
    <defs>
        <style>
            .cls-1{fill:#1a1423}.cls-2{fill:#6b5dfc}
        </style>
    </defs>
    <g id="Group_41993" transform="translate(-170 -160)">
        <g id="Group_1" transform="translate(170 160)">
            <path id="Path_59335" d="M5.931-5.779a4.437 4.437 0 0 1 1.907.4 4.267 4.267 0 0 1 1.483 1.156 5.358 5.358 0 0 1 .964 1.8A7.538 7.538 0 0 1 10.624-.1a7.524 7.524 0 0 1-.339 2.334 5.42 5.42 0 0 1-.959 1.794 4.231 4.231 0 0 1-1.472 1.158 4.377 4.377 0 0 1-1.891.4 4.162 4.162 0 0 1-1.631-.312 3.889 3.889 0 0 1-1.282-.861 3.937 3.937 0 0 1-.837-1.27h-.042v5.906H.772V-5.6H2.1v2.328h.042a4.2 4.2 0 0 1 .853-1.3 3.949 3.949 0 0 1 1.292-.889 4.108 4.108 0 0 1 1.644-.318zM5.687 4.35a3.15 3.15 0 0 0 1.849-.55 3.566 3.566 0 0 0 1.223-1.551A5.848 5.848 0 0 0 9.194-.1a5.819 5.819 0 0 0-.434-2.334 3.6 3.6 0 0 0-1.224-1.551 3.129 3.129 0 0 0-1.848-.556 3.1 3.1 0 0 0-1.833.561 3.7 3.7 0 0 0-1.239 1.561A5.67 5.67 0 0 0 2.171-.1a5.7 5.7 0 0 0 .445 2.334 3.66 3.66 0 0 0 1.239 1.56 3.118 3.118 0 0 0 1.832.556zM22.418-5.6V5.408h-1.325V3.365h-.032a3.514 3.514 0 0 1-1.388 1.619 4.15 4.15 0 0 1-2.267.6 4.153 4.153 0 0 1-2.07-.484 3.336 3.336 0 0 1-1.345-1.4 4.581 4.581 0 0 1-.471-2.143V-5.6h1.409v6.912a3.126 3.126 0 0 0 .747 2.244 2.81 2.81 0 0 0 2.134.783 3.263 3.263 0 0 0 1.684-.423 2.925 2.925 0 0 0 1.123-1.191 3.809 3.809 0 0 0 .4-1.794V-5.6zm8.8 11.187A4.035 4.035 0 0 1 27.39 3.08h-.032v2.328h-1.345V-9.864h1.409V-3.3h.032a3.944 3.944 0 0 1 .869-1.312 3.907 3.907 0 0 1 1.3-.863 4.2 4.2 0 0 1 1.6-.3 4.377 4.377 0 0 1 1.891.4 4.231 4.231 0 0 1 1.472 1.154 5.347 5.347 0 0 1 .953 1.794A7.634 7.634 0 0 1 35.874-.1a7.634 7.634 0 0 1-.334 2.334 5.347 5.347 0 0 1-.953 1.794 4.217 4.217 0 0 1-1.477 1.158 4.412 4.412 0 0 1-1.896.402zm-.269-10.128a3.1 3.1 0 0 0-1.827.561 3.75 3.75 0 0 0-1.255 1.566A5.565 5.565 0 0 0 27.411-.1a5.612 5.612 0 0 0 .45 2.323 3.718 3.718 0 0 0 1.25 1.561 3.326 3.326 0 0 0 3.681.011A3.551 3.551 0 0 0 34 2.254 5.9 5.9 0 0 0 34.434-.1 5.912 5.912 0 0 0 34-2.44a3.546 3.546 0 0 0-1.208-1.55 3.126 3.126 0 0 0-1.843-.551zm7.885 9.949V-5.6h1.324v2.032h.032a3.527 3.527 0 0 1 1.361-1.6 4.083 4.083 0 0 1 2.272-.609 4.176 4.176 0 0 1 2.081.492 3.328 3.328 0 0 1 1.345 1.4 4.638 4.638 0 0 1 .471 2.159v7.134h-1.4V-1.5a3.1 3.1 0 0 0-.757-2.238 2.835 2.835 0 0 0-2.145-.788 3.182 3.182 0 0 0-1.668.429 2.964 2.964 0 0 0-1.118 1.2 3.817 3.817 0 0 0-.4 1.789v6.52zm12.429 0V-5.6h1.4V5.408zm.7-13.293a.918.918 0 0 1-.667-.27.89.89 0 0 1-.275-.661.89.89 0 0 1 .275-.661.918.918 0 0 1 .667-.27.918.918 0 0 1 .667.27.89.89 0 0 1 .275.661.89.89 0 0 1-.275.661.918.918 0 0 1-.667.27zm4.294 13.293V-5.6h1.324v2.032h.032a3.527 3.527 0 0 1 1.361-1.6 4.083 4.083 0 0 1 2.272-.609 4.176 4.176 0 0 1 2.081.492 3.328 3.328 0 0 1 1.345 1.4 4.638 4.638 0 0 1 .471 2.159v7.134h-1.4V-1.5a3.1 3.1 0 0 0-.757-2.238 2.835 2.835 0 0 0-2.145-.788 3.182 3.182 0 0 0-1.668.429 2.964 2.964 0 0 0-1.118 1.2 3.817 3.817 0 0 0-.4 1.789v6.52zM70.1-5.6V6.107a3.094 3.094 0 0 1-.768 2.318 3.351 3.351 0 0 1-2.4.741h-.175a.561.561 0 0 1-.164-.011V7.969h.286a1.924 1.924 0 0 0 1.4-.423 1.974 1.974 0 0 0 .421-1.418V-5.6zm-.71-2.286a.918.918 0 0 1-.667-.27.89.89 0 0 1-.275-.661.89.89 0 0 1 .275-.661.918.918 0 0 1 .667-.27.918.918 0 0 1 .667.27.89.89 0 0 1 .275.661.89.89 0 0 1-.275.661.918.918 0 0 1-.672.271zm7.838 12.267a3.747 3.747 0 0 0 1.345-.238 3.474 3.474 0 0 0 1.1-.661 3.062 3.062 0 0 0 .736-.99 2.85 2.85 0 0 0 .265-1.222V.053l-3.266.222a3.591 3.591 0 0 0-2 .63 1.752 1.752 0 0 0-.7 1.455 1.809 1.809 0 0 0 .318 1.053 2.077 2.077 0 0 0 .884.714 3.2 3.2 0 0 0 1.318.254zm-.286 1.207a4.258 4.258 0 0 1-1.907-.407 3.122 3.122 0 0 1-1.287-1.132 3.079 3.079 0 0 1-.461-1.688A2.731 2.731 0 0 1 74.31.116a5.125 5.125 0 0 1 2.929-.953l3.432-.212V-2a2.433 2.433 0 0 0-.72-1.863 2.807 2.807 0 0 0-2-.677 3.213 3.213 0 0 0-1.97.561 2.4 2.4 0 0 0-.932 1.566H73.69a3.375 3.375 0 0 1 .62-1.746 3.64 3.64 0 0 1 1.483-1.191 5.215 5.215 0 0 1 2.187-.429 4.95 4.95 0 0 1 2.172.445 3.283 3.283 0 0 1 1.419 1.264 3.671 3.671 0 0 1 .5 1.942v7.536h-1.337v-2.1H80.7a3.567 3.567 0 0 1-.877 1.192 4.219 4.219 0 0 1-1.313.8 4.321 4.321 0 0 1-1.568.288z" class="cls-1" transform="translate(47.358 12.134)"/>
            <path id="Rectangle_4720" d="M0 0H82V1H0z" class="cls-1" transform="translate(48 24)"/>
            <path id="Path_59337" d="M-84.742-15.908h1.362l2.817 7.314h-1.373l-.686-1.936h-2.919l-.686 1.936h-1.321zm-.451 4.4h2.233l-1.1-3.145h-.031zm15.386-2.079a2.593 2.593 0 0 0-.225-.584 1.615 1.615 0 0 0-.369-.461 1.638 1.638 0 0 0-.528-.3 2.09 2.09 0 0 0-.7-.108 2.05 2.05 0 0 0-1.009.236 1.978 1.978 0 0 0-.691.63 2.842 2.842 0 0 0-.394.9 4.128 4.128 0 0 0-.128 1.024 4.128 4.128 0 0 0 .128 1.024 2.842 2.842 0 0 0 .394.9 1.978 1.978 0 0 0 .691.63 2.05 2.05 0 0 0 1.009.236 1.82 1.82 0 0 0 .758-.149 1.688 1.688 0 0 0 .563-.41 1.928 1.928 0 0 0 .369-.609 2.918 2.918 0 0 0 .174-.748h1.25a3.466 3.466 0 0 1-.282 1.2 2.939 2.939 0 0 1-.65.937 2.874 2.874 0 0 1-.963.609 3.336 3.336 0 0 1-1.219.215 3.449 3.449 0 0 1-1.47-.3 3.233 3.233 0 0 1-1.1-.825 3.689 3.689 0 0 1-.691-1.219 4.516 4.516 0 0 1-.241-1.485 4.484 4.484 0 0 1 .241-1.475 3.689 3.689 0 0 1 .691-1.219 3.291 3.291 0 0 1 1.1-.83 3.4 3.4 0 0 1 1.47-.307 3.873 3.873 0 0 1 1.158.169 2.992 2.992 0 0 1 .958.492 2.554 2.554 0 0 1 .671.784 2.726 2.726 0 0 1 .318 1.055zm9.537-2.325h1.362l2.817 7.314h-1.373l-.686-1.936h-2.919l-.686 1.936h-1.321zm-.451 4.4h2.233l-1.1-3.145h-.031zm10.448-4.4h3.032a3.412 3.412 0 0 1 1.455.287 2.7 2.7 0 0 1 1 .784 3.348 3.348 0 0 1 .579 1.163 5.18 5.18 0 0 1 .19 1.424 5.18 5.18 0 0 1-.19 1.424 3.348 3.348 0 0 1-.579 1.163 2.7 2.7 0 0 1-1 .784 3.412 3.412 0 0 1-1.455.287h-3.032zm1.28 6.269h1.26a3.2 3.2 0 0 0 1.224-.2 1.791 1.791 0 0 0 .748-.553 2 2 0 0 0 .369-.83 5.143 5.143 0 0 0 .1-1.029 5.143 5.143 0 0 0-.1-1.029 2 2 0 0 0-.369-.83 1.791 1.791 0 0 0-.748-.553 3.2 3.2 0 0 0-1.224-.2h-1.26zm11.237-6.269h5.265v1.112h-3.985v1.916h3.688v1.045h-3.688V-9.7h4.056v1.106h-5.337zm11.555 0h1.8l2.018 5.726h.02l1.967-5.726h1.782v7.314h-1.219v-5.644h-.02l-2.028 5.644h-1.055l-2.028-5.644h-.02v5.644H-26.2zm16.154 4.446l-2.745-4.446h1.485l1.937 3.282 1.905-3.278h1.435l-2.735 4.446v2.868h-1.28z" class="cls-1" transform="translate(135.458 44.202)"/>
            <g id="Group_42060" transform="translate(-120 -39)">
                <g id="Group_41957" transform="translate(0 -4907)">
                    <path id="Path_59339" d="M460.986 427.71H445.25v9.244a7.83 7.83 0 0 0 6.5 6.488h9.239z" class="cls-2" transform="translate(-325.248 4540.704)"/>
                    <path id="Path_59340" d="M462.4 250.492a8.584 8.584 0 0 0-17.168 0v8.58h8.583a8.582 8.582 0 0 0 8.584-8.582z" class="cls-2" transform="translate(-325.235 4704.097)"/>
                    <path id="Path_59341" d="M624.327 329.88l-.007 27.529h10.058a7.817 7.817 0 0 0 4.825-2.774z" class="cls-2" transform="translate(-482.717 4626.736)"/>
                    <path id="Path_59342" d="M634.382 241.85H624.32l16.546 27.529v-21.053a7.83 7.83 0 0 0-6.484-6.476z" class="cls-2" transform="translate(-482.717 4704.15)"/>
                </g>
            </g>
        </g>
    </g>
</svg>
