<svg xmlns="http://www.w3.org/2000/svg" width="18" height="18" viewBox="0 0 18 18">
    <defs>
        <clipPath id="f7cmxtdapa">
            <path fill="#1a1423" stroke="#7f7f7f" d="M0 0H18V18H0z"/>
        </clipPath>
    </defs>
    <g clip-path="url(#f7cmxtdapa)">
        <path fill="#1a1423" d="M359.655 40.261a6.216 6.216 0 0 1-1.795.5 3.024 3.024 0 0 0 1.371-1.708 6.029 6.029 0 0 1-1.994.743 3.155 3.155 0 0 0-2.268-.99 3.106 3.106 0 0 0-3.116 3.094 3.508 3.508 0 0 0 .075.718 8.854 8.854 0 0 1-6.431-3.243 2.985 2.985 0 0 0-.424 1.56 3.065 3.065 0 0 0 1.4 2.574 3.048 3.048 0 0 1-1.421-.4v.05a3.113 3.113 0 0 0 2.493 3.045 3.117 3.117 0 0 1-.823.1 4.876 4.876 0 0 1-.6-.05 3.112 3.112 0 0 0 2.916 2.154 6.261 6.261 0 0 1-3.889 1.337c-.249 0-.5-.025-.748-.05a8.892 8.892 0 0 0 13.66-7.426v-.4a6.136 6.136 0 0 0 1.594-1.608z" transform="translate(-342.451 -35.568)"/>
    </g>
</svg>
